<?xml version="1.0" encoding="UTF-8" standalone="no"?>
<!-- Created with Inkscape (http://www.inkscape.org/) -->

<svg
   width="400mm"
   height="400mm"
   viewBox="0 0 400 400"
   version="1.1"
   id="svg1"
   sodipodi:docname="LOGO_WEISS.svg"
   inkscape:version="1.4.2 (f4327f4, 2025-05-13)"
   xmlns:inkscape="http://www.inkscape.org/namespaces/inkscape"
   xmlns:sodipodi="http://sodipodi.sourceforge.net/DTD/sodipodi-0.dtd"
   xmlns="http://www.w3.org/2000/svg"
   xmlns:svg="http://www.w3.org/2000/svg">
  <sodipodi:namedview
     id="namedview1"
     pagecolor="#ffffff"
     bordercolor="#000000"
     borderopacity="0.25"
     inkscape:showpageshadow="2"
     inkscape:pageopacity="0.0"
     inkscape:pagecheckerboard="0"
     inkscape:deskcolor="#d1d1d1"
     inkscape:document-units="mm"
     showgrid="true"
     inkscape:zoom="1.1263116"
     inkscape:cx="657.89965"
     inkscape:cy="782.19918"
     inkscape:window-width="3840"
     inkscape:window-height="2050"
     inkscape:window-x="-12"
     inkscape:window-y="-12"
     inkscape:window-maximized="1"
     inkscape:current-layer="layer1">
    <inkscape:grid
       id="grid2"
       units="mm"
       originx="0"
       originy="0"
       spacingx="0.99999999"
       spacingy="0.99999999"
       empcolor="#0099e5"
       empopacity="0.30196078"
       color="#0099e5"
       opacity="0"
       empspacing="21"
       enabled="true"
       visible="true" />
  </sodipodi:namedview>
  <defs
     id="defs1">
    <inkscape:path-effect
       effect="construct_grid"
       id="path-effect3"
       is_visible="true"
       lpeversion="1"
       nr_x="12"
       nr_y="12" />
  </defs>
  <g
     inkscape:label="Ebene 1"
     inkscape:groupmode="layer"
     id="layer1">
    <path
       d="m 26.113128,141.78143 0.0019,0.001 c -6.773083,6.77332 -12.112962,14.4375 -16.019166,22.61506 -4.6536008,9.74223 -7.2722945,20.21346 -7.8569961,30.77628 -0.1680384,3.03573 -0.1685172,6.079 -4.754e-4,9.11476 0.5847016,10.56281 3.2043359,21.03405 7.8579425,30.77628 3.906215,8.17757 9.245605,15.84125 16.018687,22.61457 l -0.0024,0.002 19.317121,19.31713 0.0024,-0.002 9.19e-4,9.2e-4 c 6.772791,6.77278 14.435781,12.1124 22.612685,16.01869 9.741813,4.65387 20.212846,7.27369 30.775353,7.8589 3.037062,0.16825 6.081962,0.16811 9.119012,-3e-5 3.92085,-0.21702 7.82909,-0.71443 11.69211,-1.49209 6.54399,-1.31739 12.9577,-3.43913 19.08368,-6.36538 8.17759,-3.9062 15.84176,-9.24608 22.6151,-16.01916 l 9.2e-4,-9.1e-4 19.31569,-19.31568 19.3171,-19.31711 -4.55905,-4.55907 -10.19616,-10.19616 -4.56142,-4.56143 -14.75572,-14.75569 -4.5614,-4.56141 -19.3171,19.31711 -19.31664,19.31665 -19.31663,-19.31666 -19.31713,-19.31711 19.31663,-19.31663 19.31713,-19.31713 16.01866,-16.01868 3.29797,-3.29796 0.0923,-0.0923 19.2249,-19.22491 19.31664,-19.31664 L 199.9648,83.829528 219.28144,64.512901 238.59807,45.196254 257.9152,25.87913 257.4118,25.375751 C 250.76381,18.840175 243.27875,13.66652 235.30584,9.8554309 225.56588,5.1996795 215.09777,2.5769642 204.53905,1.9879779 c -3.0477,-0.1700257 -6.1033,-0.1702768 -9.15085,-0.00143 -10.56295,0.5852347 -21.03239,3.2058321 -30.77108,7.862227 -8.15645,3.8998771 -15.7997,9.2275691 -22.55564,15.9835121 -0.0158,0.01572 -0.0313,0.03136 -0.0471,0.0471 L 122.69729,45.19735 103.38066,64.513978 84.063531,83.831095 64.746902,103.14773 45.429782,122.46486 Z"
       style="fill:#ffffff;fill-opacity:1;stroke:#000000;stroke-width:0.130034"
       id="path68"
       sodipodi:nodetypes="ccssssccccsssssssccccccccccccccccccccccccsssssccccccc" />
    <path
       d="m 199.96477,161.09809 4.49203,4.49202 10.26414,10.26414 4.56095,4.56095 14.75759,14.7576 4.55906,4.55903 19.31664,-19.31663 19.3171,-19.31711 19.31712,19.3171 19.31664,19.31664 -19.31711,19.31713 -19.31665,19.31662 -16.01963,16.01966 -3.29512,3.29508 -0.002,0.002 -19.31664,19.31663 -19.31711,19.31713 -19.31663,19.31663 -19.31713,19.3171 -19.31664,19.31664 -19.31474,19.31475 9.5e-4,9.1e-4 c 6.77277,6.77281 14.43623,12.11288 22.61316,16.01917 9.74179,4.65387 20.21236,7.27323 30.77485,7.85842 3.03707,0.16827 6.08196,0.16812 9.11903,0 10.56281,-0.5847 21.03358,-3.20385 30.77582,-7.85747 8.17756,-3.9062 15.84175,-9.24609 22.61507,-16.01916 l 9.2e-4,-9.2e-4 19.31568,-19.31568 19.31712,-19.31712 19.31663,-19.31664 19.31711,-19.31711 19.31664,-19.31665 19.31712,-19.3171 9.1e-4,-9.2e-4 c 6.77278,-6.77279 12.11243,-14.43576 16.0187,-22.61269 4.65382,-9.74185 7.27283,-20.21275 7.85793,-30.77532 0.1683,-3.03823 0.16881,-6.08413 4.7e-4,-9.12238 -0.5852,-10.56247 -3.2046,-21.03298 -7.8584,-30.77486 -3.90645,-8.17738 -9.24647,-15.84139 -16.01966,-22.61456 l -18.8156,-18.81564 -0.50103,-0.50103 -0.50149,-0.50147 c -6.64858,-6.53691 -14.13568,-11.71017 -22.1112,-15.52006 -9.74196,-4.65373 -20.21268,-7.272923 -30.77532,-7.857953 -3.03919,-0.16832 -6.08653,-0.16849 -9.12569,10e-6 -3.91213,0.21692 -7.81138,0.71279 -11.66595,1.487843 -6.5523,1.31746 -12.97455,3.44133 -19.10796,6.37153 -8.17683,3.90642 -15.83992,9.24592 -22.61269,16.0187 l -19.31806,19.31802 z"
       style="fill:#ffffff;fill-opacity:1;stroke:#000000;stroke-width:0.130085"
       id="path67"
       sodipodi:nodetypes="cccccccccccccccccccccsssssscccccccsssssscccsssssscc" />
  </g>
</svg>
