<?xml version="1.0" encoding="UTF-8" standalone="no"?>
<!-- Created with Inkscape (http://www.inkscape.org/) -->

<svg
   width="376.39478mm"
   height="87.290291mm"
   viewBox="0 0 376.39478 87.290291"
   version="1.1"
   id="svg1"
   sodipodi:docname="LOGO_TEXT_NEBEN_WEISS.svg"
   inkscape:version="1.4.2 (f4327f4, 2025-05-13)"
   xmlns:inkscape="http://www.inkscape.org/namespaces/inkscape"
   xmlns:sodipodi="http://sodipodi.sourceforge.net/DTD/sodipodi-0.dtd"
   xmlns="http://www.w3.org/2000/svg"
   xmlns:svg="http://www.w3.org/2000/svg">
  <sodipodi:namedview
     id="namedview1"
     pagecolor="#ffffff"
     bordercolor="#000000"
     borderopacity="0.25"
     inkscape:showpageshadow="2"
     inkscape:pageopacity="0.0"
     inkscape:pagecheckerboard="0"
     inkscape:deskcolor="#d1d1d1"
     inkscape:document-units="mm"
     showgrid="true"
     inkscape:zoom="1.1263116"
     inkscape:cx="628.15654"
     inkscape:cy="150.04729"
     inkscape:window-width="3840"
     inkscape:window-height="2050"
     inkscape:window-x="-12"
     inkscape:window-y="-12"
     inkscape:window-maximized="1"
     inkscape:current-layer="layer1">
    <inkscape:grid
       id="grid2"
       units="mm"
       originx="-9.1395759"
       originy="-158.00473"
       spacingx="0.99999999"
       spacingy="0.99999999"
       empcolor="#0099e5"
       empopacity="0.30196078"
       color="#0099e5"
       opacity="0"
       empspacing="40"
       enabled="true"
       visible="true" />
  </sodipodi:namedview>
  <defs
     id="defs1">
    <rect
       x="396.8504"
       y="601.07703"
       width="1111.1812"
       height="330.28162"
       id="rect70" />
    <inkscape:path-effect
       effect="construct_grid"
       id="path-effect3"
       is_visible="true"
       lpeversion="1"
       nr_x="12"
       nr_y="12" />
  </defs>
  <g
     inkscape:label="Ebene 1"
     inkscape:groupmode="layer"
     id="layer1"
     transform="translate(-9.1395761,-158.00473)">
    <path
       d="m 14.43368,188.86896 4.19e-4,2.2e-4 c -1.494025,1.49408 -2.671911,3.18467 -3.533552,4.9885 -1.0265037,2.14896 -1.6041427,4.45874 -1.7331177,6.78871 -0.03707,0.66963 -0.03717,1.34093 -1.05e-4,2.01056 0.128975,2.32998 0.706821,4.63976 1.7333267,6.78872 0.861644,1.80383 2.039421,3.49431 3.533446,4.98838 l -5.29e-4,4.5e-4 4.261024,4.26102 5.3e-4,-4.4e-4 2.02e-4,2e-4 c 1.493962,1.49396 3.184285,2.67179 4.98797,3.53345 2.148876,1.02657 4.458605,1.60445 6.788513,1.73354 0.669924,0.0371 1.341576,0.0371 2.011498,-1e-5 0.864871,-0.0479 1.726962,-0.15759 2.579077,-0.32913 1.443492,-0.29059 2.858246,-0.75861 4.209532,-1.40409 1.803835,-0.86164 3.494419,-2.03952 4.988502,-3.53355 l 2.03e-4,-2e-4 4.260709,-4.26071 4.26102,-4.26102 -1.005649,-1.00565 -2.249097,-2.2491 -1.006171,-1.00617 -3.254858,-3.25485 -1.006166,-1.00617 -4.26102,4.26102 -4.260918,4.26092 -4.260916,-4.26092 -4.261027,-4.26102 4.260916,-4.26092 4.261027,-4.26102 3.53344,-3.53345 0.727476,-0.72748 0.02036,-0.0204 4.240682,-4.24068 4.260919,-4.26092 4.261022,-4.26102 4.260918,-4.26092 4.260916,-4.26092 4.261027,-4.26102 -0.111042,-0.11104 c -1.466432,-1.44164 -3.117507,-2.58285 -4.876194,-3.42352 -2.148468,-1.02697 -4.457552,-1.6055 -6.786625,-1.73542 -0.67227,-0.0375 -1.346283,-0.0375 -2.01852,-3.1e-4 -2.330005,0.12909 -4.639383,0.70715 -6.78757,1.73427 -1.799173,0.86024 -3.485142,2.03544 -4.975386,3.52569 -0.0035,0.003 -0.0069,0.007 -0.01039,0.0104 l -4.261018,4.26121 -4.260915,4.26091 -4.261026,4.26102 -4.260917,4.26092 -4.261024,4.26102 z"
       style="fill:#ffffff;fill-opacity:1;stroke:none;stroke-width:0.0286833"
       id="path68"
       sodipodi:nodetypes="ccssssccccsssssssccccccccccccccccccccccccsssssccccccc" />
    <path
       d="m 52.782361,193.12989 0.990865,0.99086 2.264092,2.26409 1.006067,1.00607 3.25527,3.25527 1.005651,1.00564 4.260918,-4.26091 4.26102,-4.26102 4.261026,4.26102 4.260917,4.26091 -4.261022,4.26103 -4.260921,4.26091 -3.533655,3.53367 -0.726847,0.72683 -4.41e-4,4.4e-4 -4.260919,4.26092 -4.261021,4.26103 -4.260916,4.26092 -4.261027,4.26101 L 44.2605,235.7395 40,240 l 2.1e-4,2.1e-4 c 1.493957,1.49396 3.184384,2.67189 4.988074,3.53355 2.148871,1.02656 4.458499,1.60435 6.788402,1.73343 0.669925,0.0371 1.341576,0.0371 2.011501,0 2.329974,-0.12897 4.639646,-0.70671 6.788617,-1.73322 1.803829,-0.86164 3.494417,-2.03953 4.988495,-3.53356 l 2.03e-4,-2e-4 4.260707,-4.26071 4.261026,-4.26102 4.260917,-4.26091 4.261022,-4.26103 4.260917,-4.26092 4.261029,-4.26102 1.95e-4,-2.1e-4 c 1.49396,-1.49396 2.671801,-3.18428 3.533461,-4.98796 1.02655,-2.14889 1.604252,-4.45858 1.733322,-6.78851 0.0371,-0.67018 0.0372,-1.34205 10e-5,-2.01224 -0.12908,-2.3299 -0.706882,-4.63951 -1.733422,-6.7884 -0.8617,-1.80379 -2.039619,-3.49434 -3.53367,-4.98839 l -4.150397,-4.1504 -0.11052,-0.11052 -0.110618,-0.11061 c -1.466565,-1.44194 -3.118086,-2.58307 -4.87735,-3.42346 -2.148912,-1.02653 -4.458575,-1.60429 -6.788514,-1.73334 -0.67039,-0.0371 -1.342582,-0.0371 -2.012966,1e-5 -0.862947,0.0479 -1.723057,0.15723 -2.573309,0.32819 -1.445325,0.29061 -2.861962,0.7591 -4.214887,1.40545 -1.803668,0.86169 -3.494013,2.03949 -4.987971,3.53345 l -4.261231,4.26122 z"
       style="fill:#ffffff;fill-opacity:1;stroke:none;stroke-width:0.0286945"
       id="path67"
       sodipodi:nodetypes="cccccccccccccccccccccsssssscccccccsssssscccsssssscc" />
    <text
       xml:space="preserve"
       transform="matrix(0.26458333,0,0,0.26458333,4.648057,21.918356)"
       id="text70"
       style="font-style:normal;font-variant:normal;font-weight:bold;font-stretch:normal;font-size:148px;font-family:Roboto;-inkscape-font-specification:'Roboto Bold';text-align:start;writing-mode:lr-tb;direction:ltr;white-space:pre;shape-inside:url(#rect70);display:inline;fill:#ffffff;fill-opacity:1;stroke:none;stroke-width:0.200315;stroke-dasharray:none"><tspan
         x="396.84961"
         y="730.57617"
         id="tspan2">SIDEHUSTLERS</tspan></text>
  </g>
</svg>
