<?xml version="1.0" encoding="UTF-8" standalone="no"?>
<!-- Created with Inkscape (http://www.inkscape.org/) -->

<svg
   width="397.78564mm"
   height="92.251068mm"
   viewBox="0 0 397.78564 92.251068"
   version="1.1"
   id="svg1"
   sodipodi:docname="LOGO_TEXT_NEBEN.svg"
   inkscape:version="1.4.2 (f4327f4, 2025-05-13)"
   xmlns:inkscape="http://www.inkscape.org/namespaces/inkscape"
   xmlns:sodipodi="http://sodipodi.sourceforge.net/DTD/sodipodi-0.dtd"
   xmlns="http://www.w3.org/2000/svg"
   xmlns:svg="http://www.w3.org/2000/svg">
  <sodipodi:namedview
     id="namedview1"
     pagecolor="#ffffff"
     bordercolor="#000000"
     borderopacity="0"
     inkscape:showpageshadow="2"
     inkscape:pageopacity="0.0"
     inkscape:pagecheckerboard="false"
     inkscape:deskcolor="#00000000"
     inkscape:document-units="mm"
     showgrid="true"
     inkscape:zoom="1.5928451"
     inkscape:cx="739.55716"
     inkscape:cy="329.5989"
     inkscape:window-width="3840"
     inkscape:window-height="2050"
     inkscape:window-x="-12"
     inkscape:window-y="-12"
     inkscape:window-maximized="1"
     inkscape:current-layer="layer1">
    <inkscape:grid
       id="grid2"
       units="mm"
       originx="-1.0516046"
       originy="-3.6352583"
       spacingx="0.99999999"
       spacingy="0.99999999"
       empcolor="#00000000"
       empopacity="0.30196078"
       color="#00000000"
       opacity="0"
       empspacing="40"
       enabled="true"
       visible="true" />
  </sodipodi:namedview>
  <defs
     id="defs1">
    <rect
       x="396.8504"
       y="601.07703"
       width="1111.1812"
       height="330.28162"
       id="rect70" />
    <inkscape:path-effect
       effect="construct_grid"
       id="path-effect3"
       is_visible="true"
       lpeversion="1"
       nr_x="12"
       nr_y="12" />
  </defs>
  <g
     inkscape:label="Ebene 1"
     inkscape:groupmode="layer"
     id="layer1"
     transform="translate(-1.0516046,-3.6352585)">
    <path
       d="m 6.6465762,36.253535 4.428e-4,2.33e-4 c -1.5789317,1.57899 -2.8237578,3.365658 -3.7343666,5.272001 -1.0848409,2.271087 -1.6953076,4.712134 -1.8316122,7.174519 -0.039175,0.707686 -0.039283,1.417136 -1.106e-4,2.124821 0.1363046,2.462395 0.7469905,4.903442 1.8318324,7.17453 0.9106118,1.906343 2.1553234,3.692895 3.7342548,5.271874 l -5.59e-4,4.75e-4 4.5031832,4.503178 5.6e-4,-4.64e-4 2.13e-4,2.11e-4 c 1.578865,1.578863 3.365251,2.82363 5.271441,3.734259 2.270999,1.08491 4.711992,1.695633 7.174311,1.832059 0.707996,0.0392 1.417819,0.0392 2.125812,-1.1e-5 0.914023,-0.05062 1.825107,-0.166546 2.725649,-0.347835 1.525527,-0.307104 3.020682,-0.801723 4.448764,-1.483886 1.906348,-0.910608 3.693009,-2.155427 5.272002,-3.734365 l 2.15e-4,-2.11e-4 4.502849,-4.50285 4.503178,-4.503177 -1.062802,-1.062803 -2.376914,-2.376918 -1.063353,-1.063351 -3.439835,-3.439827 -1.063347,-1.063352 -4.503178,4.503179 -4.50307,4.503072 -4.503067,-4.503072 -4.503185,-4.503179 4.503068,-4.503072 4.503184,-4.503177 3.734249,-3.734259 0.768819,-0.768824 0.02152,-0.02156 4.481682,-4.481679 4.503071,-4.503071 4.50318,-4.503178 4.50307,-4.503072 4.503067,-4.503073 4.503185,-4.5031794 -0.117353,-0.117351 C 59.016855,7.5935801 57.271949,6.3875143 55.413313,5.4990683 53.142746,4.4137346 50.702435,3.8023263 48.240998,3.6650228 c -0.710476,-0.039631 -1.422794,-0.039631 -2.133234,-3.277e-4 -2.462422,0.1364263 -4.903043,0.747338 -7.173314,1.8328302 -1.901422,0.9091283 -3.683206,2.1511156 -5.258141,3.7260583 -0.0037,0.0032 -0.0073,0.0074 -0.01098,0.01099 l -4.503176,4.5033794 -4.503066,4.503061 -4.503184,4.503177 -4.503069,4.503072 -4.503182,4.503179 z"
       style="fill:#0E2A6D;fill-opacity:1;stroke:none;stroke-width:0.0303134"
       id="path68"
       sodipodi:nodetypes="ccssssccccsssssssccccccccccccccccccccccccsssssccccccc" />
    <path
       d="m 47.174649,40.756618 1.047176,1.047171 2.392762,2.392761 1.063243,1.063246 3.440271,3.44027 1.062802,1.062792 4.50307,-4.503062 4.503178,-4.503178 4.503184,4.503178 4.503069,4.503062 -4.50318,4.503187 -4.503073,4.503062 -3.734476,3.734491 -0.768154,0.768136 -4.66e-4,4.66e-4 -4.503071,4.503072 -4.503179,4.503188 -4.503067,4.503073 -4.503186,4.503166 -4.50307,4.503072 -4.502628,4.502629 2.22e-4,2.22e-4 c 1.57886,1.578863 3.365356,2.823735 5.271551,3.734364 2.270994,1.084901 4.71188,1.695527 7.174194,1.831943 0.707996,0.0392 1.417818,0.0392 2.125815,0 2.462389,-0.1363 4.903322,-0.746873 7.174421,-1.831721 1.906342,-0.910608 3.693008,-2.155438 5.271996,-3.734375 l 2.14e-4,-2.11e-4 4.502847,-4.502851 4.503184,-4.503177 4.503069,-4.503061 4.50318,-4.503189 4.503069,-4.503072 4.503187,-4.503178 2.05e-4,-2.21e-4 c 1.578864,-1.578864 2.823643,-3.365246 3.734272,-5.271431 1.084889,-2.271013 1.695423,-4.711965 1.831828,-7.174307 0.0392,-0.708267 0.03931,-1.41832 1.06e-4,-2.126597 C 93.132797,46.237227 92.522159,43.796359 91.43728,41.525346 90.526608,39.619045 89.281747,37.83242 87.702788,36.253461 L 83.31652,31.867191 83.199719,31.75039 83.082814,31.633493 c -1.54991,-1.523886 -3.295289,-2.729868 -5.154534,-3.618017 -2.271036,-1.08487 -4.71196,-1.695464 -7.174311,-1.831849 -0.708489,-0.0392 -1.418883,-0.0392 -2.127365,1.1e-5 -0.911989,0.05062 -1.82098,0.166166 -2.719553,0.346842 -1.527463,0.307126 -3.024609,0.80224 -4.454422,1.485322 -1.906173,0.910662 -3.692582,2.155397 -5.271443,3.73426 l -4.5034,4.503389 z"
       style="fill:#0E2A6D;fill-opacity:1;stroke:none;stroke-width:0.0303252"
       id="path67"
       sodipodi:nodetypes="cccccccccccccccccccccsssssscccccccsssssscccsssssscc" />
    <text
       xml:space="preserve"
       transform="matrix(0.27961984,0,0,0.27961984,-3.6951722,-140.18503)"
       id="text70"
       style="font-style:normal;font-variant:normal;font-weight:bold;font-stretch:normal;font-size:148px;font-family:Roboto;-inkscape-font-specification:'Roboto Bold';text-align:start;writing-mode:lr-tb;direction:ltr;white-space:pre;shape-inside:url(#rect70);fill:#0E2A6D;fill-opacity:1;stroke:none;stroke-width:0.200315;stroke-dasharray:none"><tspan
         x="396.84961"
         y="730.57617"
         id="tspan1">SIDEHUSTLERS</tspan></text>
  </g>
</svg>
